<?xml version="1.0" encoding="UTF-8" standalone="no"?>
<!DOCTYPE svg PUBLIC "-//W3C//DTD SVG 1.1//EN"
 "http://www.w3.org/Graphics/SVG/1.1/DTD/svg11.dtd">
<!-- Generated by graphviz version 15.0.0 (20260523.1842)
 -->
<!-- Title: snowbros Pages: 1 -->
<svg width="548pt" height="310pt"
 viewBox="0.00 0.00 548.00 310.00" xmlns="http://www.w3.org/2000/svg" xmlns:xlink="http://www.w3.org/1999/xlink">
<g id="graph0" class="graph" transform="scale(1 1) rotate(0) translate(4 306.4)">
<title>snowbros</title>
<polygon fill="white" stroke="none" points="-4,4 -4,-306.4 544.23,-306.4 544.23,4 -4,4"/>
<!-- n0 -->
<g id="node1" class="node">
<title>n0</title>
<ellipse fill="none" stroke="black" cx="129.85" cy="-284.4" rx="129.85" ry="18"/>
<text xml:space="preserve" text-anchor="middle" x="129.85" y="-280.2" font-family="Times,serif" font-size="14.00">src/components/Dashboard.tsx</text>
</g>
<!-- n1 -->
<g id="node2" class="node">
<title>n1</title>
<ellipse fill="none" stroke="black" cx="129.85" cy="-195.6" rx="75.14" ry="18"/>
<text xml:space="preserve" text-anchor="middle" x="129.85" y="-191.4" font-family="Times,serif" font-size="14.00">src/lib/metrics.ts</text>
</g>
<!-- n0&#45;&gt;n1 -->
<g id="edge1" class="edge">
<title>n0&#45;&gt;n1</title>
<path fill="none" stroke="black" d="M129.85,-266.25C129.85,-254.56 129.85,-238.79 129.85,-225.22"/>
<polygon fill="black" stroke="black" points="133.35,-225.52 129.85,-215.52 126.35,-225.52 133.35,-225.52"/>
<text xml:space="preserve" text-anchor="middle" x="151.24" y="-235.8" font-family="Times,serif" font-size="14.00">imports</text>
</g>
<!-- n5 -->
<g id="node6" class="node">
<title>n5</title>
<ellipse fill="none" stroke="black" cx="129.85" cy="-106.8" rx="56.37" ry="18"/>
<text xml:space="preserve" text-anchor="middle" x="129.85" y="-102.6" font-family="Times,serif" font-size="14.00">src/lib/db.ts</text>
</g>
<!-- n1&#45;&gt;n5 -->
<g id="edge2" class="edge">
<title>n1&#45;&gt;n5</title>
<path fill="none" stroke="black" d="M129.85,-177.45C129.85,-165.76 129.85,-149.99 129.85,-136.42"/>
<polygon fill="black" stroke="black" points="133.35,-136.72 129.85,-126.72 126.35,-136.72 133.35,-136.72"/>
<text xml:space="preserve" text-anchor="middle" x="151.24" y="-147" font-family="Times,serif" font-size="14.00">imports</text>
</g>
<!-- n2 -->
<g id="node3" class="node">
<title>n2</title>
<ellipse fill="none" stroke="black" cx="328.85" cy="-284.4" rx="51" ry="18"/>
<text xml:space="preserve" text-anchor="middle" x="328.85" y="-280.2" font-family="Times,serif" font-size="14.00">src/lib/a.ts</text>
</g>
<!-- n3 -->
<g id="node4" class="node">
<title>n3</title>
<ellipse fill="none" stroke="black" cx="334.85" cy="-195.6" rx="51.54" ry="18"/>
<text xml:space="preserve" text-anchor="middle" x="334.85" y="-191.4" font-family="Times,serif" font-size="14.00">src/lib/b.ts</text>
</g>
<!-- n2&#45;&gt;n3 -->
<g id="edge3" class="edge">
<title>n2&#45;&gt;n3</title>
<path fill="none" stroke="black" d="M309.78,-267.7C300.12,-257.74 291.49,-244.36 297.07,-231.6 298.87,-227.48 301.42,-223.62 304.36,-220.09"/>
<polygon fill="black" stroke="black" points="306.71,-222.69 311.2,-213.09 301.71,-217.8 306.71,-222.69"/>
<text xml:space="preserve" text-anchor="middle" x="318.46" y="-235.8" font-family="Times,serif" font-size="14.00">imports</text>
</g>
<!-- n3&#45;&gt;n2 -->
<g id="edge4" class="edge">
<title>n3&#45;&gt;n2</title>
<path fill="none" stroke="black" d="M338.66,-213.93C340.35,-224.02 341.6,-236.97 339.85,-248.4 339.51,-250.62 339.05,-252.89 338.52,-255.16"/>
<polygon fill="black" stroke="black" points="335.16,-254.17 335.81,-264.74 341.9,-256.07 335.16,-254.17"/>
<text xml:space="preserve" text-anchor="middle" x="362.08" y="-235.8" font-family="Times,serif" font-size="14.00">imports</text>
</g>
<!-- n4 -->
<g id="node5" class="node">
<title>n4</title>
<ellipse fill="none" stroke="black" cx="468.85" cy="-284.4" rx="71.38" ry="18"/>
<text xml:space="preserve" text-anchor="middle" x="468.85" y="-280.2" font-family="Times,serif" font-size="14.00">src/lib/config.ts</text>
</g>
<!-- n6 -->
<g id="node7" class="node">
<title>n6</title>
<ellipse fill="none" stroke="black" cx="129.85" cy="-18" rx="55.01" ry="18"/>
<text xml:space="preserve" text-anchor="middle" x="129.85" y="-13.8" font-family="Times,serif" font-size="14.00">server&#45;only</text>
</g>
<!-- n5&#45;&gt;n6 -->
<g id="edge5" class="edge">
<title>n5&#45;&gt;n6</title>
<path fill="none" stroke="black" d="M129.85,-88.65C129.85,-76.96 129.85,-61.19 129.85,-47.62"/>
<polygon fill="black" stroke="black" points="133.35,-47.92 129.85,-37.92 126.35,-47.92 133.35,-47.92"/>
<text xml:space="preserve" text-anchor="middle" x="163.29" y="-58.2" font-family="Times,serif" font-size="14.00">depends_on</text>
</g>
</g>
</svg>
